STARTFONT 2.1
FONT -Monotype-Courier-Bold-I-Normal--33-240-100-100-M-178-iso8859-5
SIZE 24 100 100
FONTBOUNDINGBOX 26 35 -2 -7

STARTPROPERTIES 24
FOUNDRY "Monotype"
FAMILY_NAME "Courier"
WEIGHT_NAME "Bold"
SLANT "I"
SETWIDTH_NAME "Normal"
ADD_STYLE_NAME ""
PIXEL_SIZE 33
POINT_SIZE 240
RESOLUTION_X 100
RESOLUTION_Y 100
SPACING "M"
AVERAGE_WIDTH 178
CHARSET_REGISTRY "iso8859"
CHARSET_ENCODING "5"
FACE_NAME "Courier Bold Inclined ISO Latin Cyrillic"
_DEC_DEVICE_FONTNAMES "PS=courier-bin-latcyrillic"
COPYRIGHT "Copyright (c) 1993 Monotype Typography Ltd."
CAP_HEIGHT 20
X_HEIGHT 15
WEIGHT 10
QUAD_WIDTH 20
DEFAULT_CHAR 160
FONT_DESCENT 7
FONT_ASCENT 28
ENDPROPERTIES

CHARS 191

STARTCHAR space
ENCODING 32
SWIDTH 600 0
DWIDTH 20 0
BBX 0 0 0 0
BITMAP
ENDCHAR

STARTCHAR exclam
ENCODING 33
SWIDTH 600 0
DWIDTH 20 0
BBX 8 22 8 0
BITMAP
06
0F
1F
1F
1F
1F
1E
3E
3E
3C
3C
3C
3C
38
38
30
00
00
00
70
F0
E0
ENDCHAR

STARTCHAR quotedbl
ENCODING 34
SWIDTH 600 0
DWIDTH 20 0
BBX 12 9 8 11
BITMAP
F9F0
F1E0
F1E0
F1C0
E1C0
E1C0
E180
C180
C180
ENDCHAR

STARTCHAR numbersign
ENCODING 35
SWIDTH 600 0
DWIDTH 20 0
BBX 18 26 3 -3
BITMAP
00E300
00E780
01E780
01C700
01C700
01CF00
03CE00
038E00
1FFF80
3FFFC0
1FFF80
071C00
073C00
0F3800
0E3800
7FFE00
FFFE00
FFFE00
1C7000
1CF000
3CE000
38E000
39E000
79E000
71C000
308000
ENDCHAR

STARTCHAR dollar
ENCODING 36
SWIDTH 600 0
DWIDTH 20 0
BBX 17 27 4 -4
BITMAP
003800
007800
007000
01FF00
07FF80
0FFF80
0F0F00
1E0700
1C0600
1E0000
1FC000
0FF800
07FC00
01FE00
001E00
600E00
700E00
F01E00
F87C00
FFF800
FFF000
DFC000
070000
070000
0F0000
0E0000
0E0000
ENDCHAR

STARTCHAR percent
ENCODING 37
SWIDTH 600 0
DWIDTH 20 0
BBX 15 21 5 0
BITMAP
0780
0FE0
18E0
3860
3060
30E0
39C0
1F86
0E3E
01F8
0FC0
7E00
F9F0
C3F8
0738
0E18
0C18
0C38
0E70
07E0
03C0
ENDCHAR

STARTCHAR ampersand
ENCODING 38
SWIDTH 600 0
DWIDTH 20 0
BBX 15 18 5 0
BITMAP
01FC
03FE
07FC
0F38
0E00
0E00
0F00
0F00
1F80
3F9E
7DDE
F3DE
E1F8
E0F8
F1F0
FFFC
7FFC
3F78
ENDCHAR

STARTCHAR quoteright
ENCODING 39
SWIDTH 600 0
DWIDTH 20 0
BBX 9 10 8 10
BITMAP
0F80
0F00
1E00
1C00
3C00
3800
7000
6000
E000
C000
ENDCHAR

STARTCHAR parenleft
ENCODING 40
SWIDTH 600 0
DWIDTH 20 0
BBX 10 27 10 -5
BITMAP
00C0
01C0
03C0
0780
0780
0F00
1E00
1E00
3C00
3C00
7800
7800
7800
7000
F000
F000
F000
F000
F000
F000
F000
7800
7800
7800
3C00
3800
1800
ENDCHAR

STARTCHAR parenright
ENCODING 41
SWIDTH 600 0
DWIDTH 20 0
BBX 10 27 4 -5
BITMAP
0200
0700
0780
0780
0780
0380
03C0
03C0
03C0
03C0
03C0
03C0
03C0
0380
0380
0780
0780
0F00
0F00
1E00
1E00
3C00
7800
7800
F000
E000
C000
ENDCHAR

STARTCHAR asterisk
ENCODING 42
SWIDTH 600 0
DWIDTH 20 0
BBX 14 14 6 7
BITMAP
0180
03C0
0380
0380
638C
FFFC
FFFC
7FF8
0F80
1FC0
3DC0
79E0
71E0
60C0
ENDCHAR

STARTCHAR plus
ENCODING 43
SWIDTH 600 0
DWIDTH 20 0
BBX 18 19 3 0
BITMAP
003000
007000
007000
007000
00F000
00E000
00E000
00E000
7FFFC0
FFFF80
7FFF80
01C000
01C000
03C000
03C000
038000
038000
038000
030000
ENDCHAR

STARTCHAR comma
ENCODING 44
SWIDTH 600 0
DWIDTH 20 0
BBX 9 9 6 -5
BITMAP
0F80
1E00
1C00
3C00
3800
7000
6000
E000
C000
ENDCHAR

STARTCHAR minus
ENCODING 45
SWIDTH 600 0
DWIDTH 20 0
BBX 18 3 3 8
BITMAP
7FFFC0
FFFF80
7FFF80
ENDCHAR

STARTCHAR period
ENCODING 46
SWIDTH 600 0
DWIDTH 20 0
BBX 5 4 8 0
BITMAP
78
F8
F8
F0
ENDCHAR

STARTCHAR slash
ENCODING 47
SWIDTH 600 0
DWIDTH 20 0
BBX 20 27 2 -4
BITMAP
000060
0000F0
0000E0
0001E0
0003C0
000380
000780
000F00
000E00
001E00
003C00
003800
007000
00F000
01E000
01C000
03C000
078000
070000
0F0000
1E0000
1C0000
3C0000
780000
700000
F00000
600000
ENDCHAR

STARTCHAR zero
ENCODING 48
SWIDTH 600 0
DWIDTH 20 0
BBX 15 22 5 0
BITMAP
01F0
07FC
0FFC
1F3E
1C1E
3C0E
380E
780E
700E
700E
701E
F01C
E01C
E01C
E03C
E038
E078
F070
F9F0
7FE0
7FC0
1F00
ENDCHAR

STARTCHAR one
ENCODING 49
SWIDTH 600 0
DWIDTH 20 0
BBX 15 21 3 0
BITMAP
0008
00F8
0FF8
1FF0
0F70
0070
00F0
00F0
00E0
00E0
00E0
01E0
01C0
01C0
01C0
03C0
03C0
0380
7FFE
FFFC
FFFC
ENDCHAR

STARTCHAR two
ENCODING 50
SWIDTH 600 0
DWIDTH 20 0
BBX 18 21 2 0
BITMAP
007E00
01FF80
03FFC0
07C7C0
0F03C0
0E01C0
0E01C0
0003C0
000780
000F00
003E00
007C00
00F800
03F000
07C000
0F8000
3E0000
7C0400
FFFE00
FFFE00
FFFE00
ENDCHAR

STARTCHAR three
ENCODING 51
SWIDTH 600 0
DWIDTH 20 0
BBX 17 22 3 0
BITMAP
00FE00
03FF00
0FFF80
0F0780
0E0380
000380
000780
000780
003F00
01FE00
01FC00
01FE00
001F00
000F00
000700
000700
000700
000E00
F07E00
FFFC00
FFF800
3FE000
ENDCHAR

STARTCHAR four
ENCODING 52
SWIDTH 600 0
DWIDTH 20 0
BBX 16 21 3 0
BITMAP
000F
001F
003F
007E
00FE
01EE
01EE
03DE
079C
0F1C
1E1C
3C3C
3838
7FFE
7FFE
FFFE
0078
0070
03FC
07FC
07FC
ENDCHAR

STARTCHAR five
ENCODING 53
SWIDTH 600 0
DWIDTH 20 0
BBX 17 21 3 0
BITMAP
07FF80
07FF80
07FF80
0F0000
0F0000
0E0000
0E0000
0FFC00
1FFE00
1FFF00
1E0F00
000F00
000700
000700
000700
000F00
401E00
F03C00
FFFC00
FFF000
3FC000
ENDCHAR

STARTCHAR six
ENCODING 54
SWIDTH 600 0
DWIDTH 20 0
BBX 17 21 5 0
BITMAP
003F00
00FF80
03FF80
07E300
0F0000
1E0000
3C0000
780000
73F000
77F800
FFFC00
FE3C00
F83C00
F01C00
E01C00
E03C00
F03C00
F0F800
7FF000
7FE000
1F8000
ENDCHAR

STARTCHAR seven
ENCODING 55
SWIDTH 600 0
DWIDTH 20 0
BBX 15 21 6 0
BITMAP
7FFE
7FFE
FFFE
E01C
E03C
0038
0078
0070
00F0
00E0
01E0
03C0
0380
0780
0700
0F00
0E00
1E00
1C00
3C00
1800
ENDCHAR

STARTCHAR eight
ENCODING 56
SWIDTH 600 0
DWIDTH 20 0
BBX 16 21 4 0
BITMAP
01FC
07FE
0FFF
1F0F
3C07
3C07
380F
380F
3E3E
0FFC
1FF8
3FFC
7C7C
703C
F01C
E01C
E03C
F078
FFF0
7FE0
3F80
ENDCHAR

STARTCHAR nine
ENCODING 57
SWIDTH 600 0
DWIDTH 20 0
BBX 17 21 3 0
BITMAP
00FC00
03FF00
07FF00
078F80
0F0780
1E0380
1E0380
1C0780
1C0780
1E0F80
1F3F80
0FFF80
0FF300
03EF00
000E00
001E00
007C00
21F800
7FE000
FFC000
7F0000
ENDCHAR

STARTCHAR colon
ENCODING 58
SWIDTH 600 0
DWIDTH 20 0
BBX 7 15 8 0
BITMAP
1E
3E
3E
3C
00
00
00
00
00
00
00
78
F8
F8
F0
ENDCHAR

STARTCHAR semicolon
ENCODING 59
SWIDTH 600 0
DWIDTH 20 0
BBX 11 18 4 -4
BITMAP
01E0
03E0
03E0
03C0
0000
0000
0000
0000
0000
0000
0F00
1E00
1C00
3800
3000
7000
6000
C000
ENDCHAR

STARTCHAR less
ENCODING 60
SWIDTH 600 0
DWIDTH 20 0
BBX 20 19 2 0
BITMAP
000030
0000F0
0003F0
000FE0
003F80
00FE00
03F800
0FE000
3F8000
FC0000
7F0000
1F8000
0FE000
03F800
01FC00
007F00
001F80
000F80
000300
ENDCHAR

STARTCHAR equal
ENCODING 61
SWIDTH 600 0
DWIDTH 20 0
BBX 20 9 2 5
BITMAP
3FFFF0
7FFFF0
7FFFE0
000000
000000
000000
7FFFC0
FFFFE0
FFFFC0
ENDCHAR

STARTCHAR greater
ENCODING 62
SWIDTH 600 0
DWIDTH 20 0
BBX 20 19 2 0
BITMAP
0C0000
1F0000
1F8000
0FE000
07F000
01FC00
00FE00
003F80
000FE0
0007F0
000FC0
007F00
01FC00
07F000
1FC000
7F0000
FC0000
F00000
C00000
ENDCHAR

STARTCHAR question
ENCODING 63
SWIDTH 600 0
DWIDTH 20 0
BBX 13 20 7 0
BITMAP
0FE0
7FF0
FFF8
F878
E038
E038
4038
0078
01F0
0FE0
0FC0
1F00
1C00
0800
0000
0000
0000
3C00
7C00
7800
ENDCHAR

STARTCHAR at
ENCODING 64
SWIDTH 600 0
DWIDTH 20 0
BBX 15 24 4 -3
BITMAP
01F8
07FC
0F1E
0E0E
1C06
3806
300E
307E
71FC
63CC
631C
671C
E61C
E718
C7F8
C3FC
C1F8
C000
C000
E000
E060
79E0
7FE0
3F80
ENDCHAR

STARTCHAR A
ENCODING 65
SWIDTH 600 0
DWIDTH 20 0
BBX 21 20 0 0
BITMAP
01FF00
03FF00
03FF00
003F80
007B80
007780
00F380
00E380
01E3C0
03C3C0
0383C0
07FFC0
07FFC0
0FFFC0
1E01E0
1C01E0
3C01E0
FF8FF8
FF0FF8
FF0FF0
ENDCHAR

STARTCHAR B
ENCODING 66
SWIDTH 600 0
DWIDTH 20 0
BBX 20 20 0 0
BITMAP
0FFFC0
0FFFE0
0FFFF0
0381F0
038070
038070
038070
0780F0
0787E0
07FFC0
07FFC0
07FFE0
0F01F0
0F00F0
0F0070
0F0070
0E01F0
7FFFE0
FFFFC0
7FFF00
ENDCHAR

STARTCHAR C
ENCODING 67
SWIDTH 600 0
DWIDTH 20 0
BBX 19 20 3 0
BITMAP
00FE40
03FFE0
07FFE0
0F87E0
1E01E0
3C01C0
7801C0
700000
700000
F00000
F00000
E00000
E00000
E00000
F00100
F00780
7C1F00
7FFF00
3FFC00
0FF000
ENDCHAR

STARTCHAR D
ENCODING 68
SWIDTH 600 0
DWIDTH 20 0
BBX 20 20 2 0
BITMAP
0FFF00
0FFFC0
0FFFE0
0783E0
0780F0
0700F0
070070
070070
0F0070
0F0070
0E00F0
0E00F0
0E00E0
1E01E0
1E01C0
1C03C0
1C0F80
7FFF00
FFFE00
7FF800
ENDCHAR

STARTCHAR E
ENCODING 69
SWIDTH 600 0
DWIDTH 20 0
BBX 21 20 1 0
BITMAP
0FFFF8
1FFFF0
1FFFF0
038070
0780F0
0704E0
071C60
071C00
07FC00
0FFC00
0FFC00
0E3800
0E38C0
0E31E0
1E01C0
1C01C0
1C01C0
FFFFC0
FFFFC0
FFFF80
ENDCHAR

STARTCHAR F
ENCODING 70
SWIDTH 600 0
DWIDTH 20 0
BBX 22 20 2 0
BITMAP
0FFFFC
1FFFF8
0FFFB8
038078
038078
078870
071C70
071C00
07FC00
0FFC00
0FFC00
0E3C00
0E3800
0E3800
1E0000
1E0000
1C0000
FFF000
FFF000
FFE000
ENDCHAR

STARTCHAR G
ENCODING 71
SWIDTH 600 0
DWIDTH 20 0
BBX 19 20 3 0
BITMAP
00FF60
03FFE0
07FFE0
0F83E0
1E01E0
3C01C0
3800C0
780000
700000
F00000
F00000
E07FE0
E0FFC0
E0FFC0
E00780
F00700
F80F00
7FFF00
3FFE00
0FF000
ENDCHAR

STARTCHAR H
ENCODING 72
SWIDTH 600 0
DWIDTH 20 0
BBX 21 20 1 0
BITMAP
07F3F8
0FF3F8
0FE3F8
0380E0
0780E0
0700E0
0701E0
0701C0
0701C0
0FFFC0
0FFFC0
0FFFC0
0E0380
0E0380
1E0380
1C0780
1C0780
7F1FE0
FFBFE0
FF3FC0
ENDCHAR

STARTCHAR I
ENCODING 73
SWIDTH 600 0
DWIDTH 20 0
BBX 18 20 3 0
BITMAP
0FFFC0
0FFFC0
0FFF80
007000
00F000
00F000
00E000
00E000
00E000
01E000
01E000
01C000
01C000
01C000
03C000
03C000
038000
7FFE00
FFFC00
FFFC00
ENDCHAR

STARTCHAR J
ENCODING 74
SWIDTH 600 0
DWIDTH 20 0
BBX 22 20 2 0
BITMAP
007FFC
00FFFC
007FFC
0003C0
000380
000380
000380
000780
000700
000700
300700
380700
780F00
700E00
700E00
701E00
FC7C00
FFF800
7FF000
0FC000
ENDCHAR

STARTCHAR K
ENCODING 75
SWIDTH 600 0
DWIDTH 20 0
BBX 22 20 1 0
BITMAP
0FF9FC
1FFBFC
1FF1FC
0383E0
0787C0
070F80
073E00
077C00
07F800
0FFC00
0FFC00
0FBE00
0F1E00
0E0F00
1E0F00
1C0700
1C0780
FF87E0
FF83E0
FF83E0
ENDCHAR

STARTCHAR L
ENCODING 76
SWIDTH 600 0
DWIDTH 20 0
BBX 19 20 1 0
BITMAP
0FFF00
0FFE00
0FFE00
00E000
01E000
01E000
01C000
01C000
01C000
03C000
03C000
038060
0380E0
0380E0
0780E0
0780E0
0701E0
7FFFE0
FFFFC0
7FFFC0
ENDCHAR

STARTCHAR M
ENCODING 77
SWIDTH 600 0
DWIDTH 20 0
BBX 24 20 0 0
BITMAP
0FC03F
1FC03F
0FC07F
07E0FC
07E0FC
0FE1FC
0F63D8
0EE3B8
0EF7B8
0EFF78
1EFF78
1E7E70
1C7C70
1C7C70
1C78F0
3C00F0
3C00E0
FF87F8
FF0FF8
FF0FF0
ENDCHAR

STARTCHAR N
ENCODING 78
SWIDTH 600 0
DWIDTH 20 0
BBX 22 20 1 0
BITMAP
1F83FC
1FC3FC
1FC3FC
07C070
07E0F0
0FE0E0
0F70E0
0EF0E0
0EF0E0
0E79E0
1E79C0
1E3DC0
1C3DC0
1C1EC0
1C1FC0
3C1F80
3C0F80
FF8F80
FF8780
FF0780
ENDCHAR

STARTCHAR O
ENCODING 79
SWIDTH 600 0
DWIDTH 20 0
BBX 19 20 2 0
BITMAP
00FE00
03FF80
07FFC0
0F87C0
1E03E0
3C01E0
7800E0
7000E0
7000E0
F000E0
E001E0
E001E0
E001C0
F003C0
F00780
F80F00
7C3E00
3FFC00
1FF800
0FE000
ENDCHAR

STARTCHAR P
ENCODING 80
SWIDTH 600 0
DWIDTH 20 0
BBX 20 20 0 0
BITMAP
0FFF80
0FFFE0
0FFFF0
03C1F0
0380F0
038070
038070
0780F0
0781E0
0707E0
07FFC0
07FF80
0FFE00
0F0000
0E0000
0E0000
0E0000
7FF000
FFF000
7FF000
ENDCHAR

STARTCHAR Q
ENCODING 81
SWIDTH 600 0
DWIDTH 20 0
BBX 19 25 3 -5
BITMAP
00FE00
03FF80
07FFC0
0F87C0
1E03E0
3C01E0
7800E0
7000E0
7000E0
F000E0
E001E0
E001E0
E001C0
F003C0
F00780
F80F00
7C3E00
3FFC00
1FF800
0FE000
1F0300
3FF700
7FFF00
FFFF00
787C00
ENDCHAR

STARTCHAR R
ENCODING 82
SWIDTH 600 0
DWIDTH 20 0
BBX 21 20 0 0
BITMAP
0FFF80
0FFFE0
0FFFF0
03C1F0
038070
038070
0380F0
0781F0
0707E0
07FFC0
07FE00
07FF00
0F1F80
0F0F80
0E07C0
0E03C0
0E03C0
7FC1F8
FFC1F0
7F80F0
ENDCHAR

STARTCHAR S
ENCODING 83
SWIDTH 600 0
DWIDTH 20 0
BBX 18 20 3 0
BITMAP
00FE80
03FFC0
07FFC0
0F87C0
1E0380
1C0380
1C0380
1E0000
1FE000
0FFC00
07FE00
00FF00
000F00
600700
F00700
F00F00
FC3E00
FFFC00
FFF800
8FE000
ENDCHAR

STARTCHAR T
ENCODING 84
SWIDTH 600 0
DWIDTH 20 0
BBX 19 20 4 0
BITMAP
7FFFE0
7FFFC0
7FFFC0
70E1C0
F1E3C0
F1C380
E1C380
E1C380
C1C300
03C000
038000
038000
038000
038000
078000
070000
070000
7FF000
FFF000
FFF000
ENDCHAR

STARTCHAR U
ENCODING 85
SWIDTH 600 0
DWIDTH 20 0
BBX 20 20 4 0
BITMAP
7F9FF0
FF9FE0
FF9FE0
380380
380780
380780
780700
700700
700700
700F00
F00F00
F00E00
E00E00
E00E00
E01E00
F03C00
F8F800
7FF000
3FE000
1F8000
ENDCHAR

STARTCHAR V
ENCODING 86
SWIDTH 600 0
DWIDTH 20 0
BBX 21 20 3 0
BITMAP
7F87F8
FF87F8
FF07F8
3C01E0
3C03C0
3C0380
1C0780
1C0F00
1E0E00
1E1E00
1E1C00
0E3C00
0F7800
0F7000
0F7000
0FE000
07E000
07C000
078000
078000
ENDCHAR

STARTCHAR W
ENCODING 87
SWIDTH 600 0
DWIDTH 20 0
BBX 21 20 3 0
BITMAP
7F87F8
FF8FF8
7F8FF0
3800E0
3801E0
78F1C0
79F1C0
79F3C0
73F380
73F380
77B780
777B00
777B00
7E7F00
7E7E00
7C3E00
FC3E00
F83E00
F83C00
F03C00
ENDCHAR

STARTCHAR X
ENCODING 88
SWIDTH 600 0
DWIDTH 20 0
BBX 22 20 1 0
BITMAP
0FE1FC
1FE3FC
0FC1F8
07C1E0
03C3C0
03E780
01EF00
00FE00
00FE00
007C00
00FC00
01FC00
03FE00
07DE00
0F8F00
1F0F80
3C0780
FF1FE0
FF1FE0
FE1FC0
ENDCHAR

STARTCHAR Y
ENCODING 89
SWIDTH 600 0
DWIDTH 20 0
BBX 19 20 4 0
BITMAP
7F0FE0
FF1FE0
7E0FE0
3C0F00
1E1E00
1E1E00
0F3C00
0F7800
07F000
07E000
03C000
038000
038000
038000
078000
078000
070000
7FF000
FFF000
FFF000
ENDCHAR

STARTCHAR Z
ENCODING 90
SWIDTH 600 0
DWIDTH 20 0
BBX 19 20 2 0
BITMAP
07FFE0
07FFE0
07FFC0
0703C0
0F0780
0E0F00
0E1E00
0C3C00
007800
00F000
01E000
03C000
078380
0F0380
1F0780
3E0700
780700
7FFF00
7FFF00
FFFF00
ENDCHAR

STARTCHAR bracketleft
ENCODING 91
SWIDTH 600 0
DWIDTH 20 0
BBX 13 26 7 -5
BITMAP
03F8
07F8
07F0
0700
0700
0F00
0F00
0E00
0E00
0E00
1E00
1E00
1C00
1C00
1C00
3C00
3800
3800
3800
3800
7800
7000
7000
7F00
FF00
FE00
ENDCHAR

STARTCHAR backslash
ENCODING 92
SWIDTH 600 0
DWIDTH 20 0
BBX 10 27 7 -4
BITMAP
6000
F000
F000
7000
7800
7800
7800
3800
3C00
3C00
3C00
1C00
1E00
1E00
1E00
0E00
0F00
0F00
0F00
0700
0780
0780
0380
0380
03C0
03C0
0180
ENDCHAR

STARTCHAR bracketright
ENCODING 93
SWIDTH 600 0
DWIDTH 20 0
BBX 13 26 3 -5
BITMAP
03F8
07F8
07F8
0070
0070
0070
00F0
00E0
00E0
00E0
01E0
01E0
01C0
01C0
01C0
03C0
03C0
0380
0380
0380
0780
0700
0700
7F00
FF00
7F00
ENDCHAR

STARTCHAR asciicircum
ENCODING 94
SWIDTH 600 0
DWIDTH 20 0
BBX 15 11 5 11
BITMAP
0040
00C0
01E0
03F0
07F0
0F78
1E7C
3C3C
783E
F01E
600C
ENDCHAR

STARTCHAR underscore
ENCODING 95
SWIDTH 600 0
DWIDTH 20 0
BBX 20 2 0 -4
BITMAP
FFFFF0
FFFFF0
ENDCHAR

STARTCHAR quoteleft
ENCODING 96
SWIDTH 600 0
DWIDTH 20 0
BBX 5 10 11 10
BITMAP
F8
78
78
78
38
38
38
38
18
18
ENDCHAR

STARTCHAR a
ENCODING 97
SWIDTH 600 0
DWIDTH 20 0
BBX 17 15 2 0
BITMAP
03FC00
0FFF00
1FFF00
0C0F00
000700
07FF00
1FFF00
3FFF00
7C1E00
F00E00
E01E00
F0FE00
FFFF80
7FFF80
3F9F00
ENDCHAR

STARTCHAR b
ENCODING 98
SWIDTH 600 0
DWIDTH 20 0
BBX 20 21 0 0
BITMAP
0FC000
1F8000
0F8000
038000
038000
078000
073F80
07FFC0
07FFE0
0FE1F0
0F80F0
0F0070
0E0070
0E0070
1E00F0
1E00E0
1E01E0
1F87C0
FFFF80
FFFF00
F9FC00
ENDCHAR

STARTCHAR c
ENCODING 99
SWIDTH 600 0
DWIDTH 20 0
BBX 17 15 3 0
BITMAP
03FD80
0FFF80
1FFF80
3E0F80
780780
700700
F00300
E00000
E00000
E00000
F00700
F81F00
7FFF00
3FFC00
1FF000
ENDCHAR

STARTCHAR d
ENCODING 100
SWIDTH 600 0
DWIDTH 20 0
BBX 19 21 3 0
BITMAP
0007E0
0007E0
0007E0
0001E0
0001C0
0001C0
03F9C0
0FFFC0
1FFFC0
3E1F80
780F80
700780
F00780
E00780
E00700
E00F00
F01F00
F83F00
7FFFC0
3FFFC0
1FCF80
ENDCHAR

STARTCHAR e
ENCODING 101
SWIDTH 600 0
DWIDTH 20 0
BBX 17 15 3 0
BITMAP
03FC00
0FFE00
1FFF00
3E0F80
780780
700380
FFFF80
FFFF80
FFFF80
E00000
F00000
FC1F00
7FFF00
3FFE00
0FF000
ENDCHAR

STARTCHAR f
ENCODING 102
SWIDTH 600 0
DWIDTH 20 0
BBX 20 21 3 0
BITMAP
001FE0
007FF0
00FFF0
01E040
01C000
01C000
1FFF80
1FFF80
1FFF00
038000
038000
038000
078000
070000
070000
070000
0F0000
0F0000
FFFC00
FFFC00
FFFC00
ENDCHAR

STARTCHAR g
ENCODING 103
SWIDTH 600 0
DWIDTH 20 0
BBX 20 21 3 -6
BITMAP
03FBF0
0FFFF0
1FFFE0
3E1F80
780F00
700F00
F00700
E00F00
E00F00
E01E00
F01E00
F87E00
7FFE00
3FFC00
1F9C00
001C00
003C00
007800
7FF000
7FE000
7F8000
ENDCHAR

STARTCHAR h
ENCODING 104
SWIDTH 600 0
DWIDTH 20 0
BBX 19 21 1 0
BITMAP
0FC000
0FC000
0FC000
038000
038000
038000
07BF00
07FF80
07FFC0
07E3C0
0781C0
0F01C0
0E01C0
0E03C0
0E0380
0E0380
1E0380
1C0780
7F9FE0
FF1FE0
FF1FC0
ENDCHAR

STARTCHAR i
ENCODING 105
SWIDTH 600 0
DWIDTH 20 0
BBX 16 21 2 0
BITMAP
007C
0078
0078
0000
0000
0000
07F8
0FF0
0FF0
0070
00F0
00F0
00E0
00E0
00E0
01E0
01E0
01C0
7FFF
FFFF
7FFF
ENDCHAR

STARTCHAR j
ENCODING 106
SWIDTH 600 0
DWIDTH 20 0
BBX 16 27 2 -6
BITMAP
000F
001E
001E
0000
0000
0000
0FFF
0FFF
0FFF
000F
000E
000E
000E
001E
001C
001C
001C
003C
003C
0038
0038
0038
0078
00F0
FFE0
FFC0
FF00
ENDCHAR

STARTCHAR k
ENCODING 107
SWIDTH 600 0
DWIDTH 20 0
BBX 19 21 1 0
BITMAP
07E000
0FC000
0FC000
01C000
03C000
038000
038FE0
039FE0
079FE0
07BE00
077C00
07F800
07E000
0FF000
0FF800
0E7C00
0E7C00
0E3E00
7E1FC0
FE3FC0
7C3FC0
ENDCHAR

STARTCHAR l
ENCODING 108
SWIDTH 600 0
DWIDTH 20 0
BBX 16 21 2 0
BITMAP
03FC
07FC
03F8
0038
0038
0038
0078
0070
0070
0070
00F0
00F0
00E0
00E0
00E0
01E0
01E0
01C0
7FFF
FFFF
7FFF
ENDCHAR

STARTCHAR m
ENCODING 109
SWIDTH 600 0
DWIDTH 20 0
BBX 21 15 0 0
BITMAP
0030E0
1F7DF8
3FFFF8
1F9F38
0F1E38
0E1C78
0E3C78
1E3C70
1C3870
1C3870
1C38F0
3C78F0
7E7CF8
FE7CF8
FE7CF8
ENDCHAR

STARTCHAR n
ENCODING 110
SWIDTH 600 0
DWIDTH 20 0
BBX 18 15 1 0
BITMAP
001E00
0FBF80
1FFFC0
1FE3C0
0781C0
0F01C0
0E03C0
0E03C0
0E0380
0E0380
1E0380
1C0780
7F9FC0
FF1FC0
FF1FC0
ENDCHAR

STARTCHAR o
ENCODING 111
SWIDTH 600 0
DWIDTH 20 0
BBX 17 15 3 0
BITMAP
01FC00
07FE00
1FFF00
3E1F80
780780
700380
F00380
E00380
E00780
E00700
F00F00
FC3E00
7FFC00
3FF800
0FC000
ENDCHAR

STARTCHAR p
ENCODING 112
SWIDTH 600 0
DWIDTH 20 0
BBX 22 22 -2 -7
BITMAP
0007C0
07FFF0
0FFFF8
0FF8FC
03E03C
03C03C
03C01C
03801C
03803C
078038
07C078
07F3F0
07FFE0
0FFFC0
0F7F00
0E0000
0E0000
0E0000
1E0000
7FE000
FFC000
FFC000
ENDCHAR

STARTCHAR q
ENCODING 113
SWIDTH 600 0
DWIDTH 20 0
BBX 20 21 3 -6
BITMAP
03FBF0
0FFFF0
1FFFF0
3E1F80
780F80
700780
F00700
E00700
E00F00
F01F00
F87F00
7FFE00
3FFE00
0FCE00
001E00
001E00
001C00
001C00
01FF00
03FF00
03FF00
ENDCHAR

STARTCHAR r
ENCODING 114
SWIDTH 600 0
DWIDTH 20 0
BBX 20 15 2 0
BITMAP
0FC7C0
1FDFF0
1FFFE0
03FCE0
03F000
03E000
038000
078000
078000
070000
070000
070000
7FFE00
FFFC00
FFFC00
ENDCHAR

STARTCHAR s
ENCODING 115
SWIDTH 600 0
DWIDTH 20 0
BBX 17 15 2 0
BITMAP
01FF80
07FF80
0FFF80
1E0780
1C0300
1FC000
1FFC00
0FFE00
01FF00
300F00
700700
7C1F00
FFFE00
FFFC00
4FF000
ENDCHAR

STARTCHAR t
ENCODING 116
SWIDTH 600 0
DWIDTH 20 0
BBX 15 20 4 0
BITMAP
0700
0700
0700
0F00
0E00
7FFE
FFFE
7FFE
1E00
1C00
1C00
1C00
1C00
3C00
3800
3806
3C3E
3FFE
1FFC
0FE0
ENDCHAR

STARTCHAR u
ENCODING 117
SWIDTH 600 0
DWIDTH 20 0
BBX 17 15 3 0
BITMAP
FC3F80
FC3F00
FC3F00
3C0700
380700
380F00
380E00
380E00
780E00
701E00
703E00
78FC00
7FFF00
3FDF00
1E3E00
ENDCHAR

STARTCHAR v
ENCODING 118
SWIDTH 600 0
DWIDTH 20 0
BBX 20 15 3 0
BITMAP
FF9FF0
FF9FF0
FF1FE0
3C0700
3C0F00
1C1E00
1E1C00
1E3C00
0E7800
0E7000
0F7000
0FE000
07C000
07C000
078000
ENDCHAR

STARTCHAR w
ENCODING 119
SWIDTH 600 0
DWIDTH 20 0
BBX 20 15 3 0
BITMAP
FE07F0
FE0FF0
FE0FE0
78E380
79E380
7BE780
7BE700
7BF700
7BF600
7F7E00
7E7C00
7E7C00
7C7800
387800
387800
ENDCHAR

STARTCHAR x
ENCODING 120
SWIDTH 600 0
DWIDTH 20 0
BBX 20 14 1 0
BITMAP
0FC7F0
1FE7F0
1F87F0
07C7C0
03EF00
01FE00
00F800
01FC00
07FE00
0F9F00
1E0F80
7F1FE0
FF3FE0
FF1FC0
ENDCHAR

STARTCHAR y
ENCODING 121
SWIDTH 600 0
DWIDTH 20 0
BBX 22 21 0 -7
BITMAP
0FE1FC
1FE3FC
0F41F8
0780F0
0781E0
0783C0
038380
03C780
03CF00
01DE00
01EE00
01FC00
00F800
00F000
00F000
01E000
03C000
038000
FFE000
FFE000
FFE000
ENDCHAR

STARTCHAR z
ENCODING 122
SWIDTH 600 0
DWIDTH 20 0
BBX 17 14 3 0
BITMAP
1FFF80
1FFF80
1FDF00
3C3E00
187C00
08F800
01E000
07C000
0F8000
1F0E00
3C0E00
FFFE00
FFFE00
FFFC00
ENDCHAR

STARTCHAR braceleft
ENCODING 123
SWIDTH 600 0
DWIDTH 20 0
BBX 11 26 7 -5
BITMAP
00E0
01E0
03E0
0780
0700
0700
0F00
0E00
0E00
0E00
1E00
7C00
F800
FC00
3C00
1C00
3800
3800
3800
3800
3800
7000
7800
7E00
3E00
1C00
ENDCHAR

STARTCHAR bar
ENCODING 124
SWIDTH 600 0
DWIDTH 20 0
BBX 3 26 8 -5
BITMAP
40
E0
E0
E0
E0
E0
E0
E0
E0
E0
E0
E0
E0
E0
E0
E0
E0
E0
E0
E0
E0
E0
E0
E0
E0
60
ENDCHAR

STARTCHAR braceright
ENCODING 125
SWIDTH 600 0
DWIDTH 20 0
BBX 11 26 5 -5
BITMAP
0700
0F80
0FC0
03C0
01C0
0380
0380
0380
0380
0780
0700
07C0
03E0
07E0
0F80
0F00
0E00
0E00
0E00
1E00
1C00
1C00
3C00
F800
F000
C000
ENDCHAR

STARTCHAR asciitilde
ENCODING 126
SWIDTH 600 0
DWIDTH 20 0
BBX 16 7 4 6
BITMAP
0F00
3F87
7FCF
FBEF
E3FE
C1FC
00F0
ENDCHAR

STARTCHAR space
ENCODING 160
SWIDTH 600 0
DWIDTH 21 0
BBX 0 0 0 0
BITMAP
ENDCHAR

STARTCHAR afii10023
ENCODING 161
SWIDTH 600 0
DWIDTH 20 0
BBX 21 26 1 0
BITMAP
0070E0
0070E0
0070E0
000000
000000
000000
0FFFF8
1FFFF0
1FFFF0
038070
0780F0
0708E0
071CE0
071C00
07FC00
0FFC00
0FFC00
0E3800
0E38C0
1E31E0
1E01C0
1C01C0
1C01C0
FFFFC0
FFFFC0
FFFF80
ENDCHAR

STARTCHAR afii10051
ENCODING 162
SWIDTH 600 0
DWIDTH 20 0
BBX 17 21 3 -1
BITMAP
7FFC00
FFFC00
FFFC00
E79C00
E79C00
E71C00
070000
070000
0F7E00
0FFF00
0FFF80
0FE780
0F0380
1E0380
1E0380
1C0380
1C0780
FF3F00
FF7F00
FF7E00
001800
ENDCHAR

STARTCHAR afii10052
ENCODING 163
SWIDTH 600 0
DWIDTH 20 0
BBX 22 28 1 0
BITMAP
000040
0001C0
000380
000E00
001C00
001000
000000
000000
1FFFFC
1FFFFC
1FFFFC
038038
038038
038038
078078
078070
070030
070000
070000
0F0000
0F0000
0E0000
0E0000
0E0000
1E0000
FFF000
FFF000
FFE000
ENDCHAR

STARTCHAR afii10053
ENCODING 164
SWIDTH 600 0
DWIDTH 20 0
BBX 19 20 3 0
BITMAP
00FC40
03FF60
0FFFE0
1F87E0
3E01E0
3801C0
7801C0
700000
7FF800
FFF800
FFF800
E00000
E00000
E00000
F00300
F80780
7E1F00
7FFF00
3FFC00
0FF000
ENDCHAR

STARTCHAR afii10054
ENCODING 165
SWIDTH 600 0
DWIDTH 20 0
BBX 18 20 3 0
BITMAP
00FE80
03FFC0
07FFC0
0F87C0
1E0380
1C0380
1C0380
1E0000
1FE000
0FFC00
07FE00
00FF00
000F00
600700
F00700
F00F00
FC3E00
FFFC00
FFF800
8FE000
ENDCHAR

STARTCHAR afii10055
ENCODING 166
SWIDTH 600 0
DWIDTH 20 0
BBX 18 20 3 0
BITMAP
0FFFC0
0FFFC0
0FFF80
007000
00F000
00F000
00E000
00E000
00E000
01E000
01E000
01C000
01C000
01C000
03C000
03C000
038000
7FFE00
FFFC00
FFFC00
ENDCHAR

STARTCHAR afii10056
ENCODING 167
SWIDTH 600 0
DWIDTH 20 0
BBX 18 26 3 0
BITMAP
01C380
01C380
01C380
000000
000000
000000
0FFFC0
0FFFC0
0FFFC0
007000
00F000
00F000
00E000
00E000
00E000
01E000
01E000
01C000
01C000
01C000
03C000
03C000
038000
7FFE00
FFFE00
FFFC00
ENDCHAR

STARTCHAR afii10057
ENCODING 168
SWIDTH 600 0
DWIDTH 20 0
BBX 22 20 2 0
BITMAP
007FFC
00FFFC
007FFC
0003C0
000380
000380
000380
000780
000700
000700
300700
380700
780F00
700E00
700E00
701E00
FC7C00
FFF800
7FF000
0FC000
ENDCHAR

STARTCHAR afii10058
ENCODING 169
SWIDTH 600 0
DWIDTH 20 0
BBX 21 20 0 0
BITMAP
03FFF0
03FFF0
03FFF0
007380
00F380
00F780
00E780
00E700
00E7E0
01E7F0
01EFF8
01CE78
01CE38
01CE38
73DE38
F39C78
EFBFF0
FF7FF0
FF7FC0
7C3F00
ENDCHAR

STARTCHAR afii10059
ENCODING 170
SWIDTH 600 0
DWIDTH 20 0
BBX 21 20 1 0
BITMAP
0FDFF0
0FDFF0
0FDFE0
070700
070F00
0F0E00
0F0E00
0E0E00
0E0E00
0FFFE0
1FFFF0
1FFFF8
1C1C78
1C1C38
1C3C38
3C3C38
3C38F8
FEFFF0
FEFFE0
FEFF80
ENDCHAR

STARTCHAR afii10060
ENCODING 171
SWIDTH 600 0
DWIDTH 20 0
BBX 17 20 3 0
BITMAP
7FFC00
7FFE00
FFFE00
F39E00
E39C00
E79C00
C78800
070000
077C00
07FE00
0FFF00
0FCF00
0F0700
0E0700
0E0700
1E0F00
1C0E00
7F3F80
FF3F80
7F3F80
ENDCHAR

STARTCHAR afii10061
ENCODING 172
SWIDTH 600 0
DWIDTH 20 0
BBX 20 27 2 0
BITMAP
000180
000780
000E00
001C00
003000
000000
000000
1FE0F0
1FE3F0
1FE7F0
070FF0
070F70
071E60
073C00
0F7800
0FF000
0FF000
0FF800
0E7800
1E3800
1C3C00
1C1C00
1C1C00
3C1E00
FF0FC0
FF0FC0
FF0FC0
ENDCHAR

STARTCHAR hyphen
ENCODING 173
SWIDTH 600 0
DWIDTH 20 0
BBX 14 3 5 8
BITMAP
FFFC
FFFC
FFFC
ENDCHAR

STARTCHAR afii10062
ENCODING 174
SWIDTH 600 0
DWIDTH 20 0
BBX 22 27 2 0
BITMAP
0080C0
018180
01C380
00FF00
007C00
000000
000000
3F83F8
3FC3FC
3F83F8
0F01E0
0F03C0
0707C0
078780
078F00
039E00
03DC00
03FC00
01F800
01F000
01E000
71E000
73C000
778000
FF0000
FE0000
7C0000
ENDCHAR

STARTCHAR afii10145
ENCODING 175
SWIDTH 600 0
DWIDTH 20 0
BBX 21 24 2 -4
BITMAP
1FC7F8
3FEFF8
3FC7F0
0F01C0
0E03C0
0E03C0
0E0380
1E0380
1E0380
1C0780
1C0780
1C0700
3C0700
3C0700
380F00
380F00
380E00
FFFF80
FFFF80
FFFF00
038000
038000
038000
038000
ENDCHAR

STARTCHAR afii10017
ENCODING 176
SWIDTH 600 0
DWIDTH 20 0
BBX 21 20 0 0
BITMAP
01FF00
03FF00
03FF00
003F80
007B80
007780
00F380
00E380
01E3C0
03C3C0
0383C0
07FFC0
07FFC0
0FFFC0
1E01E0
1C01E0
3C01E0
FF87F8
FF0FF8
FF0FF0
ENDCHAR

STARTCHAR afii10018
ENCODING 177
SWIDTH 600 0
DWIDTH 20 0
BBX 21 20 1 0
BITMAP
1FFFF8
3FFFF0
3FFFF0
038070
0780F0
0700E0
0700E0
0700C0
070000
0FFF00
0FFFC0
0FFFE0
0E03E0
0E00E0
1E00E0
1C00E0
1C03E0
FFFFC0
FFFF80
FFFE00
ENDCHAR

STARTCHAR afii10019
ENCODING 178
SWIDTH 600 0
DWIDTH 20 0
BBX 20 20 0 0
BITMAP
0FFFC0
0FFFE0
0FFFF0
0381F0
038070
038070
038070
0780F0
0787E0
07FFC0
07FFC0
07FFE0
0F01F0
0F00F0
0F0070
0F0070
0E01F0
7FFFE0
FFFFC0
7FFF00
ENDCHAR

STARTCHAR afii10020
ENCODING 179
SWIDTH 600 0
DWIDTH 20 0
BBX 22 20 1 0
BITMAP
1FFFFC
1FFFFC
1FFFFC
038038
038038
038038
078078
078070
070030
070000
070000
0F0000
0F0000
0E0000
0E0000
0E0000
1E0000
FFF000
FFF000
FFE000
ENDCHAR

STARTCHAR afii10021
ENCODING 180
SWIDTH 600 0
DWIDTH 20 0
BBX 22 24 0 -4
BITMAP
03FFFC
03FFFC
03FFFC
007070
00F0F0
00F0E0
00E0E0
00E0E0
00E1E0
01E1E0
01E1C0
01C1C0
01C1C0
03C3C0
0383C0
078380
1F0380
7FFFE0
7FFFE0
7FFFE0
F000E0
F001E0
E001E0
E001C0
ENDCHAR

STARTCHAR afii10022
ENCODING 181
SWIDTH 600 0
DWIDTH 20 0
BBX 21 20 1 0
BITMAP
0FFFF8
1FFFF0
1FFFF0
038070
0780F0
0704E0
071CE0
071C00
07FC00
0FFC00
0FFC00
0E3800
0E38C0
0E31E0
1E01C0
1C01C0
1C01C0
FFFFC0
FFFFC0
FFFF80
ENDCHAR

STARTCHAR afii10024
ENCODING 182
SWIDTH 600 0
DWIDTH 20 0
BBX 23 20 0 0
BITMAP
0F1F0E
0FBF9E
0FBFBE
1FCE7E
1DDEF6
0DDCEC
01EDC0
01EDC0
00FF80
01FF00
03FF80
03BB80
07BBC0
0F3BC0
0E79C0
1E71C0
3C71C0
FDFDF0
F9FCF0
71F8F0
ENDCHAR

STARTCHAR afii10025
ENCODING 183
SWIDTH 600 0
DWIDTH 20 0
BBX 21 21 0 0
BITMAP
01C000
01DFC0
01FFE0
01FFF0
03F0F8
03C078
078078
070070
0701F0
007FE0
007FC0
007FE0
0003E0
0000E0
0000E0
7001E0
F801E0
7E0FC0
7FFF80
1FFF00
07FC00
ENDCHAR

STARTCHAR afii10026
ENCODING 184
SWIDTH 600 0
DWIDTH 20 0
BBX 22 20 1 0
BITMAP
1FF0FC
1FF1FC
1FF3F8
0783E0
0707E0
070FE0
070EC0
0F1DC0
0F3DC0
0E7BC0
0E73C0
0EE380
1EE380
1DC380
1F8780
1F0780
1F0700
FE3FE0
FC7FE0
FC3FC0
ENDCHAR

STARTCHAR afii10027
ENCODING 185
SWIDTH 600 0
DWIDTH 20 0
BBX 22 27 1 0
BITMAP
006060
006060
0070C0
003F80
001F00
000000
000000
1FF0F8
1FF1FC
1FF3F8
0783E0
0707E0
070FE0
070EC0
0F1DC0
0F3DC0
0E7BC0
0E73C0
0EE380
1EE380
1DC380
1F8780
1F0780
1F0700
FE3FE0
FC7FE0
FC3FC0
ENDCHAR

STARTCHAR afii10028
ENCODING 186
SWIDTH 600 0
DWIDTH 20 0
BBX 20 20 2 0
BITMAP
1FE0F0
1FE3F0
1FE7F0
070FF0
070F70
071E60
073C00
0F7800
0FF000
0FF000
0FF800
0E7800
1E3800
1C3C00
1C1C00
1C1C00
3C1E00
FF0FC0
FF0FC0
FF0FC0
ENDCHAR

STARTCHAR afii10029
ENCODING 187
SWIDTH 600 0
DWIDTH 20 0
BBX 23 20 0 0
BITMAP
03FFFC
03FFFE
03FFFC
007070
00F0F0
00F0E0
00E0E0
00E0E0
00E0E0
01E1E0
01E1C0
01C1C0
01C1C0
01C1C0
73C3C0
73C380
F78380
FF8FE0
FE1FE0
7C0FE0
ENDCHAR

STARTCHAR afii10030
ENCODING 188
SWIDTH 600 0
DWIDTH 20 0
BBX 24 20 0 0
BITMAP
0FC03F
1FC03F
0FC07F
07E0FC
07E0FC
0FE1FC
0FE1F8
0EE3D8
0EF7B8
0EF778
1EFF78
1E7E70
1C7C70
1C7C70
1C78F0
3C00F0
3C00E0
FF87F8
FF0FF8
FF0FF0
ENDCHAR

STARTCHAR afii10031
ENCODING 189
SWIDTH 600 0
DWIDTH 20 0
BBX 21 20 1 0
BITMAP
0FF3F8
0FF3F8
0FF3F8
0380E0
0780E0
0780E0
0701E0
0701C0
0701C0
0FFFC0
0FFFC0
0FFFC0
0E0380
0E0380
1E0380
1C0380
1C0780
7F9FE0
FFBFE0
FF3FC0
ENDCHAR

STARTCHAR afii10032
ENCODING 190
SWIDTH 600 0
DWIDTH 20 0
BBX 19 20 2 0
BITMAP
00FE00
03FF80
07FFC0
0F87C0
1E03E0
3C01E0
7800E0
7000E0
F000E0
F000E0
E001E0
E001E0
E001C0
F003C0
F00780
F80F00
7C3E00
3FFC00
1FF800
0FE000
ENDCHAR

STARTCHAR afii10033
ENCODING 191
SWIDTH 600 0
DWIDTH 20 0
BBX 21 20 1 0
BITMAP
0FFFF8
0FFFF8
0FFFF8
0380E0
0780E0
0700E0
0701E0
0701C0
0701C0
0F01C0
0E01C0
0E03C0
0E0380
0E0380
1E0380
1C0780
1C0780
7F9FE0
FFBFE0
FF3FC0
ENDCHAR

STARTCHAR afii10034
ENCODING 192
SWIDTH 600 0
DWIDTH 20 0
BBX 20 20 1 0
BITMAP
0FFF80
0FFFE0
0FFFF0
03C1F0
0380F0
038070
038070
0780F0
0781E0
0707E0
07FFC0
07FF80
0FFE00
0F0000
0E0000
0E0000
0E0000
7FF000
FFF000
7FF000
ENDCHAR

STARTCHAR afii10035
ENCODING 193
SWIDTH 600 0
DWIDTH 20 0
BBX 19 20 3 0
BITMAP
00FE40
03FFE0
07FFE0
0F87E0
1E01E0
3C01C0
7801C0
700000
700000
F00000
F00000
E00000
E00000
E00000
F00100
F00780
7C1F00
7FFF00
3FFC00
0FF000
ENDCHAR

STARTCHAR afii10036
ENCODING 194
SWIDTH 600 0
DWIDTH 20 0
BBX 19 20 4 0
BITMAP
7FFFE0
7FFFC0
7FFFC0
70E1C0
F1E3C0
F1C380
E1C380
E1C380
C1C300
03C000
038000
038000
038000
038000
078000
070000
070000
7FF000
FFF000
FFF000
ENDCHAR

STARTCHAR afii10037
ENCODING 195
SWIDTH 600 0
DWIDTH 20 0
BBX 22 20 2 0
BITMAP
3F83F8
3FC3FC
3F83F8
0F01E0
0F03C0
0707C0
078780
078F00
039E00
03DC00
03FC00
01F800
01F000
01E000
71E000
73C000
778000
FF0000
FE0000
7C0000
ENDCHAR

STARTCHAR afii10038
ENCODING 196
SWIDTH 600 0
DWIDTH 20 0
BBX 18 20 3 0
BITMAP
01FE00
03FE00
03FE00
007000
007000
1FFF00
3FFF80
7FFFC0
78E3C0
F0E1C0
E1E1C0
E1C3C0
F1C780
FFFF80
7FFF00
1FFC00
038000
0FF000
1FF000
1FE000
ENDCHAR

STARTCHAR afii10039
ENCODING 197
SWIDTH 600 0
DWIDTH 20 0
BBX 22 20 1 0
BITMAP
0FE1FC
1FE3FC
0FE1FC
0781F0
03C3E0
03E7C0
01EF80
01FF00
00FE00
007C00
00FC00
01FC00
03DE00
079F00
0F0F00
1E0F80
3C0780
FF1FE0
FF1FE0
FE1FC0
ENDCHAR

STARTCHAR afii10040
ENCODING 198
SWIDTH 600 0
DWIDTH 20 0
BBX 21 24 1 -4
BITMAP
1FE7F8
1FE7F8
1FE7F8
0701E0
0701C0
0F01C0
0F01C0
0E03C0
0E03C0
0E0380
1E0380
1E0380
1C0780
1C0780
1C0700
3C0700
3C0700
7FFFE0
FFFFE0
FFFFE0
0001C0
0001C0
0001C0
000180
ENDCHAR

STARTCHAR afii10041
ENCODING 199
SWIDTH 600 0
DWIDTH 20 0
BBX 18 20 4 0
BITMAP
FF3FC0
FF3FC0
FF3FC0
380F00
380E00
380E00
780E00
781E00
701E00
707C00
79FC00
7FFC00
3FFC00
1FBC00
003800
003800
003800
07FE00
07FE00
07FE00
ENDCHAR

STARTCHAR afii10042
ENCODING 200
SWIDTH 600 0
DWIDTH 20 0
BBX 24 20 0 0
BITMAP
1FBFBF
1FBFBF
1F3F7E
071C78
071C70
0F1C70
0F1C70
0E3CF0
0E38F0
0E38E0
1E38E0
1E38E0
1C79E0
1C71E0
1C71C0
1C71C0
3C71C0
7FFFF8
FFFFF0
FFFFF0
ENDCHAR

STARTCHAR afii10043
ENCODING 201
SWIDTH 600 0
DWIDTH 20 0
BBX 24 24 0 -4
BITMAP
1FBFBF
1FBFBF
1F3F7E
071C78
071C70
0F1C70
0F1C70
0E3CF0
0E38F0
0E38E0
1E38E0
1E38E0
1C79E0
1C71E0
1C71C0
1C71C0
3C71C0
7FFFF8
FFFFF8
FFFFF8
000078
000078
000078
000070
ENDCHAR

STARTCHAR afii10044
ENCODING 202
SWIDTH 600 0
DWIDTH 20 0
BBX 20 20 1 0
BITMAP
7FFF00
7FFF00
7FFE00
707000
707000
70F000
F0E000
E0E000
E0E000
00FFC0
01FFE0
01FFF0
01C0F0
01C070
01C070
03C070
0381F0
0FFFE0
1FFFC0
1FFF00
ENDCHAR

STARTCHAR afii10045
ENCODING 203
SWIDTH 600 0
DWIDTH 20 0
BBX 23 20 0 0
BITMAP
0FF0FE
1FF8FE
1FF0FE
078038
070038
070038
070038
070078
0F0070
0FF070
0FF870
0FFC70
0E3CF0
1E1CE0
1C1CE0
1C1CE0
1C7CE0
7FFBF8
FFF7F8
7FC3F0
ENDCHAR

STARTCHAR afii10046
ENCODING 204
SWIDTH 600 0
DWIDTH 20 0
BBX 19 20 1 0
BITMAP
0FF800
1FF800
1FF000
038000
078000
078000
070000
070000
070000
0FFF00
0FFFC0
0FFFE0
0E03E0
0E00E0
1E00E0
1E00E0
1C03E0
FFFFC0
FFFF80
FFFE00
ENDCHAR

STARTCHAR afii10047
ENCODING 205
SWIDTH 600 0
DWIDTH 20 0
BBX 19 21 1 0
BITMAP
070000
077E00
07FF80
07FFC0
0FC3C0
0F01E0
0E01E0
1E00E0
1C00E0
0000E0
007FE0
00FFE0
007FE0
0001E0
0003C0
2003C0
F00780
FC1F00
7FFE00
3FFC00
07F000
ENDCHAR

STARTCHAR afii10048
ENCODING 206
SWIDTH 600 0
DWIDTH 20 0
BBX 23 20 0 0
BITMAP
0FE1F0
0FE7F8
0FEFFC
071E1E
071C1E
073C0E
0F380E
0E780E
0FF00E
0FF00E
0FF00E
1E701E
1E701C
1C701C
1C783C
1C7878
3C3CF0
FF3FF0
FF1FE0
FE0F80
ENDCHAR

STARTCHAR afii10049
ENCODING 207
SWIDTH 600 0
DWIDTH 20 0
BBX 20 20 2 0
BITMAP
01FFF0
03FFF0
07FFF0
0F83C0
0F0380
0E0380
0E0380
0F0780
0FFF80
07FF00
01FF00
03E700
03CF00
078E00
0F0E00
1E0E00
1E1E00
FC7F80
F87F80
F87F80
ENDCHAR

STARTCHAR afii10065
ENCODING 208
SWIDTH 600 0
DWIDTH 20 0
BBX 17 15 2 0
BITMAP
03FC00
0FFF00
1FFF00
0C0F00
000700
07FF00
1FFF00
3FFF00
7C1E00
F00E00
E01E00
F0FE00
FFFF80
7FFF80
3F9F00
ENDCHAR

STARTCHAR afii10066
ENCODING 209
SWIDTH 600 0
DWIDTH 20 0
BBX 17 22 3 0
BITMAP
000380
000380
000780
03FF00
0FFF00
1FFC00
3C0000
39F000
7FFC00
7FFE00
7E1F00
F80F00
F00700
E00700
E00700
E00F00
E00F00
F01E00
787C00
7FFC00
3FF000
0FC000
ENDCHAR

STARTCHAR afii10067
ENCODING 210
SWIDTH 600 0
DWIDTH 20 0
BBX 19 15 1 0
BITMAP
3FFF80
3FFFC0
3FFFE0
0F01E0
0F00E0
0E03E0
0FFFC0
0FFE00
1FFFC0
1E01E0
1E00E0
1E01E0
FFFFE0
FFFFC0
FFFF00
ENDCHAR

STARTCHAR afii10068
ENCODING 211
SWIDTH 600 0
DWIDTH 20 0
BBX 21 14 1 0
BITMAP
1FFFF8
3FFFF0
3FFFF0
078070
0700F0
0700E0
0700E0
0F00E0
0E0000
0E0000
0E0000
7FF000
FFF000
7FE000
ENDCHAR

STARTCHAR afii10069
ENCODING 212
SWIDTH 600 0
DWIDTH 20 0
BBX 21 18 0 -4
BITMAP
03FFF8
07FFF8
03FFF8
00E1C0
00E1C0
01E1C0
01C3C0
01C3C0
03C380
03C380
0F8380
7FFFC0
7FFFE0
7FFFE0
7001C0
7001C0
F001C0
6001C0
ENDCHAR

STARTCHAR afii10070
ENCODING 213
SWIDTH 600 0
DWIDTH 20 0
BBX 18 15 2 0
BITMAP
01FC00
07FF00
0FFF80
1F0F80
3C03C0
7803C0
7FFFC0
7FFFC0
FFFFC0
F00000
780000
7C1F80
3FFF80
3FFF00
0FF800
ENDCHAR

STARTCHAR afii10072
ENCODING 214
SWIDTH 600 0
DWIDTH 20 0
BBX 21 15 0 0
BITMAP
0E3C30
1F7EF8
1F7EF8
1DB9F8
1BBBB8
01DB30
01FE00
03FE00
07B700
0F7700
0E7780
1CF380
79FBE0
F9F9E0
71F9C0
ENDCHAR

STARTCHAR afii10073
ENCODING 215
SWIDTH 600 0
DWIDTH 20 0
BBX 18 16 1 0
BITMAP
070000
077F00
07FF80
07FFC0
0F83C0
0E03C0
0E7FC0
0CFF00
00FF80
003F80
400380
F00380
FE1F80
7FFF00
3FFE00
07F800
ENDCHAR

STARTCHAR afii10074
ENCODING 216
SWIDTH 600 0
DWIDTH 20 0
BBX 21 14 1 0
BITMAP
1FF1F0
3FF3F8
3FE7F0
070FC0
0F1FC0
0F3D80
0E7B80
0EF380
0EE380
1FC780
1F8700
7F3FE0
FE7FE0
7C3FC0
ENDCHAR

STARTCHAR afii10075
ENCODING 217
SWIDTH 600 0
DWIDTH 20 0
BBX 21 21 1 0
BITMAP
00C040
00C0C0
00E1C0
007F80
003E00
000000
000000
1FF1F0
3FF3F8
3FE7F0
070FC0
0F1FC0
0F3D80
0E7B80
0EF380
0EE380
1FC780
1F8700
7F3FE0
FE7FE0
7C3FC0
ENDCHAR

STARTCHAR afii10076
ENCODING 218
SWIDTH 600 0
DWIDTH 20 0
BBX 18 14 2 0
BITMAP
1F83C0
3FCFC0
3FDFC0
0F3EC0
0E7DC0
0FF000
0FE000
1FF800
1E7800
1C3C00
1C3C00
FF1F80
FF1F80
FF0F80
ENDCHAR

STARTCHAR afii10077
ENCODING 219
SWIDTH 600 0
DWIDTH 20 0
BBX 20 15 1 0
BITMAP
07FFF0
07FFF0
07FFF0
01E3C0
01E380
01C380
01C380
01C780
03C700
63C700
778700
FF8700
FFBFC0
FF3FC0
3E3FC0
ENDCHAR

STARTCHAR afii10078
ENCODING 220
SWIDTH 600 0
DWIDTH 20 0
BBX 23 15 0 0
BITMAP
0F003C
1F807E
1F80FC
0FC1F8
0FC3F0
0EE7F0
0EEF70
1EFE70
1EFCE0
1C7CE0
1C78E0
1C00E0
7F8FF8
FF8FF0
FF0FF0
ENDCHAR

STARTCHAR afii10079
ENCODING 221
SWIDTH 600 0
DWIDTH 20 0
BBX 21 15 0 0
BITMAP
0FE3F8
1FE3F8
0FE3F8
0700E0
0700E0
0F00E0
0FFFE0
0FFFC0
0FFFC0
0E01C0
1E01C0
1E03C0
7F8FF0
FF9FF0
7F0FE0
ENDCHAR

STARTCHAR afii10080
ENCODING 222
SWIDTH 600 0
DWIDTH 20 0
BBX 17 15 3 0
BITMAP
01F800
07FE00
1FFF00
3E0F80
7C0780
700380
F00380
E00380
E00780
E00700
F00F00
FC3E00
7FFC00
3FF000
0FC000
ENDCHAR

STARTCHAR afii10081
ENCODING 223
SWIDTH 600 0
DWIDTH 20 0
BBX 20 14 1 0
BITMAP
1FFFF0
3FFFF0
1FFFE0
0E03C0
0E0380
0E0380
1E0380
1C0780
1C0780
1C0700
3C0700
FF3FC0
FF3FC0
FE3FC0
ENDCHAR

STARTCHAR afii10082
ENCODING 224
SWIDTH 600 0
DWIDTH 20 0
BBX 22 21 -2 -6
BITMAP
07EFE0
0FFFF0
0FFFF8
03F87C
03E03C
03C01C
03801C
03801C
07803C
07C078
07E1F0
07FFE0
0FFFC0
0F7F00
0E0000
0E0000
0E0000
1E0000
7FE000
FFC000
FFC000
ENDCHAR

STARTCHAR afii10083
ENCODING 225
SWIDTH 600 0
DWIDTH 20 0
BBX 17 15 3 0
BITMAP
03FD80
0FFF80
1FFF80
3E0F80
780780
700700
F00300
E00000
E00000
E00000
F00700
FC1F00
7FFF00
3FFC00
1FF000
ENDCHAR

STARTCHAR afii10084
ENCODING 226
SWIDTH 600 0
DWIDTH 20 0
BBX 18 14 3 0
BITMAP
7FFFC0
7FFFC0
FFFFC0
F1C380
E1C380
E1C380
E3C780
C3C700
038000
038000
038000
7FF800
7FF800
7FF000
ENDCHAR

STARTCHAR afii10085
ENCODING 227
SWIDTH 600 0
DWIDTH 20 0
BBX 20 19 2 -4
BITMAP
3F0FF0
7F8FF0
3F0BF0
1E0780
0E0780
0F0F00
0F1E00
073C00
07FC00
07F800
03F000
03E000
03E000
E3C000
E78000
EF0000
FE0000
FC0000
F80000
ENDCHAR

STARTCHAR afii10086
ENCODING 228
SWIDTH 600 0
DWIDTH 20 0
BBX 17 25 3 -4
BITMAP
004000
03F000
03F000
01F000
00F000
00F000
0FFE00
1FFF00
3FFF80
7DE780
79C380
F1C380
F1C380
E3C380
E3C780
E38700
E38F00
F39F00
7FFE00
7FFC00
3FF000
070000
3FE000
7FE000
3FE000
ENDCHAR

STARTCHAR afii10087
ENCODING 229
SWIDTH 600 0
DWIDTH 20 0
BBX 20 15 1 0
BITMAP
0FC3F0
1FE7F0
1F87F0
07C7C0
07EF80
03FE00
01FC00
00F800
03FC00
07DE00
1F9F00
3E0F80
FF1FE0
FF3FE0
7E1FC0
ENDCHAR

STARTCHAR afii10088
ENCODING 230
SWIDTH 600 0
DWIDTH 20 0
BBX 21 18 1 -4
BITMAP
1FE7F8
3FEFF8
3FC7F0
0E01C0
0E01C0
0E03C0
1E0380
1E0380
1C0380
1C0780
1C0700
7FFFF0
FFFFE0
7FFFE0
0000E0
0001E0
0001C0
0001C0
ENDCHAR

STARTCHAR afii10089
ENCODING 231
SWIDTH 600 0
DWIDTH 20 0
BBX 18 14 3 0
BITMAP
7F3FC0
FFBFC0
5F3FC0
3C0E00
3C0E00
381E00
387E00
3FFE00
3FFC00
0FDC00
001C00
03FF00
03FF00
03FF00
ENDCHAR

STARTCHAR afii10090
ENCODING 232
SWIDTH 600 0
DWIDTH 20 0
BBX 23 14 0 0
BITMAP
3F7E7E
3E7EFC
3E7EFC
0E38E0
1E38E0
1E78E0
1C79E0
1C71E0
1C71C0
3C71C0
38F1C0
7FFFF0
FFFFF0
FFFFF0
ENDCHAR

STARTCHAR afii10091
ENCODING 233
SWIDTH 600 0
DWIDTH 20 0
BBX 23 18 0 -4
BITMAP
3F7E7E
3E7EFC
3E7EFC
0E38E0
1E38E0
1E78E0
1C79E0
1C71C0
1C71C0
3C71C0
38F1C0
7FFFF8
FFFFF8
FFFFF0
000070
000070
0000F0
000060
ENDCHAR

STARTCHAR afii10092
ENCODING 234
SWIDTH 600 0
DWIDTH 20 0
BBX 17 15 2 0
BITMAP
7FFE00
7FFE00
FFFC00
F1E000
E1C000
E1C000
E1FE00
C1FF00
03FF80
03C780
038380
038780
1FFF80
1FFF00
1FFC00
ENDCHAR

STARTCHAR afii10093
ENCODING 235
SWIDTH 600 0
DWIDTH 20 0
BBX 22 14 0 0
BITMAP
3FE1FC
3FF1FC
3FE1FC
0E0070
0E0070
0F00F0
1FF0E0
1FF8E0
1FF8E0
1C39E0
1C79C0
FFFBF0
FFF7F8
FFC7F0
ENDCHAR

STARTCHAR afii10094
ENCODING 236
SWIDTH 600 0
DWIDTH 20 0
BBX 18 15 1 0
BITMAP
3FF000
3FF000
3FE000
0F0000
0E0000
0E0000
0FFF00
0FFF80
1FFFC0
1C03C0
1C01C0
1C03C0
FFFFC0
FFFF80
FFFE00
ENDCHAR

STARTCHAR afii10095
ENCODING 237
SWIDTH 600 0
DWIDTH 20 0
BBX 19 16 1 0
BITMAP
060000
0EFE00
0FFF80
0FFFC0
0F87C0
1E01C0
1C01E0
1CFFE0
00FFE0
00FFC0
F003C0
F807C0
7E0F80
3FFF00
1FFE00
07F800
ENDCHAR

STARTCHAR afii10096
ENCODING 238
SWIDTH 600 0
DWIDTH 20 0
BBX 21 15 1 0
BITMAP
1F87E0
3F9FF0
3FBFF8
0E7C78
1E7878
1EF038
1FE038
1FE038
1FE038
3CE078
3CF0F0
38F1F0
FF7FE0
FF3FC0
FE1F80
ENDCHAR

STARTCHAR afii10097
ENCODING 239
SWIDTH 600 0
DWIDTH 20 0
BBX 20 14 1 0
BITMAP
01FFF0
07FFF0
0FFFF0
0F0380
0E0380
0F0380
0FFF80
07FF00
01FF00
07C700
0F8F00
FF3FC0
FE7FC0
FC3FC0
ENDCHAR

STARTCHAR afii61352
ENCODING 240
SWIDTH 600 0
DWIDTH 20 0
BBX 21 20 1 0
BITMAP
1F3F00
1FBF80
1FBF80
0F9F78
0F8EF8
0F9ED8
0F9FD8
1FDDD8
1FDDB8
1DDDB0
1DDDF0
1DFDE0
3DF800
39FBE0
38FBE0
38FBE0
7CF000
FEF000
FEF000
7C6000
ENDCHAR

STARTCHAR afii10071
ENCODING 241
SWIDTH 600 0
DWIDTH 20 0
BBX 17 21 3 0
BITMAP
038700
038700
038700
000000
000000
000000
03F800
0FFE00
1FFF00
3E1F80
780780
F00380
FFFF80
FFFF80
FFFF80
E00000
F00000
F81F00
7FFF00
7FFE00
1FF000
ENDCHAR

STARTCHAR afii10099
ENCODING 242
SWIDTH 600 0
DWIDTH 20 0
BBX 18 28 1 -7
BITMAP
0FC000
0FFC00
0FFE00
03FC00
038000
038000
07FF00
07FFC0
07FFC0
07E3C0
0781C0
0F01C0
0E01C0
0E03C0
0E0380
0E0380
1E0380
1C0780
7F8780
FF0700
FF0700
000700
000F00
000E00
003E00
1FFC00
3FF800
1FF000
ENDCHAR

STARTCHAR afii10100
ENCODING 243
SWIDTH 600 0
DWIDTH 20 0
BBX 21 21 1 0
BITMAP
000380
000700
000E00
003800
003000
000000
000000
1FFFF8
3FFFF0
3FFFF0
078070
0700F0
0700E0
0700E0
0F00E0
0E0000
0E0000
0E0000
7FF000
FFF000
7FE000
ENDCHAR

STARTCHAR afii10101
ENCODING 244
SWIDTH 600 0
DWIDTH 20 0
BBX 18 15 3 0
BITMAP
01FC80
07FFC0
1FFFC0
3E0780
3C0380
780380
7FE300
FFE000
FFE000
F00000
F00300
7C0F00
7FFF00
3FFE00
0FF000
ENDCHAR

STARTCHAR afii10102
ENCODING 245
SWIDTH 600 0
DWIDTH 20 0
BBX 17 15 2 0
BITMAP
01FD80
07FF80
0FFF80
1F0780
1C0300
1F8000
1FFC00
0FFE00
01FF00
300F00
700700
7C1F00
FFFE00
FFFC00
4FF000
ENDCHAR

STARTCHAR afii10103
ENCODING 246
SWIDTH 600 0
DWIDTH 20 0
BBX 16 21 2 0
BITMAP
007C
0078
0078
0000
0000
0000
07F8
0FF0
0FF0
0070
00F0
00F0
00E0
00E0
00E0
01E0
01E0
01C0
7FFF
FFFF
7FFE
ENDCHAR

STARTCHAR afii10104
ENCODING 247
SWIDTH 600 0
DWIDTH 20 0
BBX 16 20 3 0
BITMAP
070E
070E
070E
0000
0000
0000
0FF0
0FF0
0FF0
00E0
00E0
00E0
01E0
01C0
01C0
01C0
03C0
FFFE
FFFF
FFFE
ENDCHAR

STARTCHAR afii10105
ENCODING 248
SWIDTH 600 0
DWIDTH 20 0
BBX 16 27 2 -6
BITMAP
000F
001E
001E
0000
0000
0000
0FFF
0FFF
0FFF
000F
000E
000E
000E
001E
001C
001C
001C
003C
003C
0038
0038
0038
0078
00F0
FFE0
FFC0
FF00
ENDCHAR

STARTCHAR afii10106
ENCODING 249
SWIDTH 600 0
DWIDTH 20 0
BBX 20 15 0 0
BITMAP
07FFC0
07FFC0
07F7C0
01CF00
01CE00
03CF80
038FE0
038FF0
039EF0
639C70
E79CF0
FF3FF0
FF7FE0
FE7FC0
780000
ENDCHAR

STARTCHAR afii10107
ENCODING 250
SWIDTH 600 0
DWIDTH 20 0
BBX 20 15 1 0
BITMAP
1FBFE0
3FBFE0
1FBFC0
0E0E00
0E1E00
1E1C00
1FFFC0
1FFFE0
1FFFF0
1C3CF0
3C3C70
3C38F0
7EFFF0
FEFFE0
FEFFC0
ENDCHAR

STARTCHAR afii10108
ENCODING 251
SWIDTH 600 0
DWIDTH 20 0
BBX 19 21 1 0
BITMAP
0FC000
0FFE00
0FFE00
03FC00
038000
038000
07FF00
07FFC0
07FFC0
07E3C0
0781C0
0F01C0
0E01C0
0E03C0
0E0380
0E0380
1E0380
1C0780
7F9FE0
FF1FE0
FF1FC0
ENDCHAR

STARTCHAR afii10109
ENCODING 252
SWIDTH 600 0
DWIDTH 20 0
BBX 18 22 2 0
BITMAP
000200
000E00
001C00
003800
006000
000000
000000
000000
1F83C0
3FCFC0
3FDFC0
0F3EC0
0E7DC0
0FF000
0FE000
1FF800
1E7800
1C3C00
1C3C00
FF1F80
FF1F80
FF0F80
ENDCHAR

STARTCHAR section
ENCODING 253
SWIDTH 600 0
DWIDTH 20 0
BBX 19 24 2 -3
BITMAP
003FE0
00FFE0
01FFC0
0380C0
0300C0
0300C0
0F8000
1FC000
3DF000
30F800
383E00
3C1F00
1E0780
0F8380
07C180
01F380
00FF80
003F00
301800
701800
603800
607000
FFF000
FFC000
ENDCHAR

STARTCHAR afii10110
ENCODING 254
SWIDTH 600 0
DWIDTH 20 0
BBX 20 26 2 -4
BITMAP
030100
030300
038700
01FE00
00F800
000000
000000
3F0FF0
7F8FF0
3F0BF0
1E0780
0E0780
0F0F00
0F1E00
073C00
07FC00
07F800
03F000
03E000
03E000
E3C000
E78000
EF0000
FE0000
FC0000
F80000
ENDCHAR

STARTCHAR afii10193
ENCODING 255
SWIDTH 600 0
DWIDTH 20 0
BBX 21 18 1 -4
BITMAP
3FC7F8
3FC7F8
3FC7F8
0E01C0
0E01C0
1E01C0
1E03C0
1C0380
1C0380
1C0380
3C0380
7FFFC0
FFFFC0
FFFFC0
01C000
01C000
01C000
01C000
ENDCHAR
ENDFONT
